<?xml version="1.0" standalone="no"?>
<!DOCTYPE svg PUBLIC "-//W3C//DTD SVG 20010904//EN"
 "http://www.w3.org/TR/2001/REC-SVG-20010904/DTD/svg10.dtd">
<svg version="1.0" xmlns="http://www.w3.org/2000/svg"
 width="512.000000pt" height="512.000000pt" viewBox="0 0 512.000000 512.000000"
 preserveAspectRatio="xMidYMid meet">
<metadata>
Created by potrace 1.14, written by Peter Selinger 2001-2017
</metadata>
<g transform="translate(0.000000,512.000000) scale(0.100000,-0.100000)"
fill="#000000" stroke="none">
<path d="M2478 4386 c-20 -7 -70 -37 -110 -67 -169 -125 -325 -240 -348 -258
-23 -17 -230 -170 -1184 -873 -181 -134 -340 -258 -354 -275 -70 -92 -69 -204
2 -300 63 -85 185 -119 282 -78 28 12 141 89 229 156 7 5 10 -312 10 -947 0
-525 3 -964 7 -974 4 -10 18 -26 32 -35 22 -15 157 -16 1516 -16 1357 0 1494
1 1516 16 14 9 28 25 32 35 4 11 7 449 7 974 0 635 3 952 10 947 90 -69 201
-145 232 -157 124 -53 286 28 322 161 24 89 -2 189 -65 246 -16 14 -202 154
-414 310 -212 155 -443 326 -515 379 -753 557 -1013 745 -1044 756 -46 17
-116 17 -163 0z"/>
</g>
</svg>
